<svg xmlns="http://www.w3.org/2000/svg" xmlns:xlink="http://www.w3.org/1999/xlink" viewBox="0,0,256,256" width="32px" height="32px" fill-rule="nonzero"><g fill="#0f36ae" fill-rule="nonzero" stroke="none" stroke-width="1" stroke-linecap="butt" stroke-linejoin="miter" stroke-miterlimit="10" stroke-dasharray="" stroke-dashoffset="0" font-family="none" font-weight="none" font-size="none" text-anchor="none" style="mix-blend-mode: normal"><g transform="scale(8,8)"><path d="M3,0v2h2v-2zM27,0v2h2v-2zM11,2v2h10v-2zM21,4v2h3v-2zM24,6v10h2v-10zM24,16h-3v2h3zM21,18h-1h-5v2h4v2h-4v2h4v2h2zM19,26h-6v2h1v2h4v-2h1zM13,26v-8h-2v8zM11,18v-2h-3v2zM8,16v-10h-2v10zM8,6h3v-2h-3zM15,8v2h2v-2zM17,10v6h2v-6zM15,10h-2v6h2zM0,10v2h2v-2zM30,10v2h2v-2zM3,20v2h2v-2zM27,20v2h2v-2z"></path></g></g></svg>