<svg xmlns="http://www.w3.org/2000/svg" xmlns:xlink="http://www.w3.org/1999/xlink" viewBox="0,0,256,256" width="64px" height="64px" fill-rule="nonzero"><g fill="none" fill-rule="nonzero" stroke="none" stroke-width="1" stroke-linecap="butt" stroke-linejoin="miter" stroke-miterlimit="10" stroke-dasharray="" stroke-dashoffset="0" font-family="none" font-weight="none" font-size="none" text-anchor="none" style="mix-blend-mode: normal"><g transform="scale(4,4)"><path d="M7,23h50v28c0,3.31371 -2.68629,6 -6,6h-38c-3.31371,0 -6,-2.68629 -6,-6z" fill="#faefde"></path><path d="M6.89,51h50.11v1.23c0,2.76142 -2.23858,5 -5,5h-40.11c-2.76142,0 -5,-2.23858 -5,-5v-1.23z" fill="#efd8be"></path><path d="M13,7h38c3.31371,0 6,2.68629 6,6v10h-50v-10c0,-3.31371 2.68629,-6 6,-6z" fill="#cda1a7"></path><path d="M45,11h8v6h-8z" fill="#bbdef9"></path><path d="M32,19c-7.1797,0 -13,5.8203 -13,13c0,7.1797 5.8203,13 13,13c7.1797,0 13,-5.8203 13,-13c0,-7.1797 -5.8203,-13 -13,-13z" fill="#ffeb9b"></path><path d="M32,22c-5.52285,0 -10,4.47715 -10,10c0,5.52285 4.47715,10 10,10c5.52285,0 10,-4.47715 10,-10c0,-5.52285 -4.47715,-10 -10,-10z" fill="#bbdef9"></path><path d="M32,27c-2.76142,0 -5,2.23858 -5,5c0,2.76142 2.23858,5 5,5c2.76142,0 5,-2.23858 5,-5c0,-2.76142 -2.23858,-5 -5,-5z" fill="#d2edff"></path><path d="M30,27c-1.65685,0 -3,1.34315 -3,3c0,1.65685 1.34315,3 3,3c1.65685,0 3,-1.34315 3,-3c0,-1.65685 -1.34315,-3 -3,-3zM35.5,34c-0.82843,0 -1.5,0.67157 -1.5,1.5c0,0.82843 0.67157,1.5 1.5,1.5c0.82843,0 1.5,-0.67157 1.5,-1.5c0,-0.82843 -0.67157,-1.5 -1.5,-1.5z" fill="#f3f3f3"></path><path d="M51,6h-38c-3.86599,0 -7,3.13401 -7,7v38c0,3.86599 3.13401,7 7,7h38c3.86599,0 7,-3.13401 7,-7v-38c0,-3.86599 -3.13401,-7 -7,-7zM13,8h1v3c0,0.55228 0.44772,1 1,1c0.55228,0 1,-0.44772 1,-1v-3h35c2.76142,0 5,2.23858 5,5v9h-14c-0.08279,0.01344 -0.16721,0.01344 -0.25,0c-5.43517,-5.29042 -14.09483,-5.29042 -19.53,0c-0.0732,0.00636 -0.1468,0.00636 -0.22,0h-14v-9c0,-2.76142 2.23858,-5 5,-5zM32,20c6.62742,0 12,5.37258 12,12c0,6.62742 -5.37258,12 -12,12c-6.62742,0 -12,-5.37258 -12,-12c0,-6.62742 5.37258,-12 12,-12zM51,56h-38c-2.76142,0 -5,-2.23858 -5,-5v-27h12.53c-4.06752,5.81961 -3.13452,13.7626 2.17084,18.48125c5.30536,4.71866 13.30295,4.71866 18.60831,0c5.30536,-4.71866 6.23836,-12.66164 2.17084,-18.48125h12.52v27c0,2.76142 -2.23858,5 -5,5z" fill="#0f36ae"></path><path d="M32,42c5.52285,0 10,-4.47715 10,-10c0,-5.52285 -4.47715,-10 -10,-10c-5.52285,0 -10,4.47715 -10,10c0,5.52285 4.47715,10 10,10zM32,24c4.41828,0 8,3.58172 8,8c0,4.41828 -3.58172,8 -8,8c-4.41828,0 -8,-3.58172 -8,-8c0,-4.41828 3.58172,-8 8,-8zM47,18h4c1.65685,0 3,-1.34315 3,-3v-2c0,-1.65685 -1.34315,-3 -3,-3h-4c-1.65685,0 -3,1.34315 -3,3v2c0,1.65685 1.34315,3 3,3zM46,13c0,-0.55228 0.44772,-1 1,-1h4c0.55228,0 1,0.44772 1,1v2c0,0.55228 -0.44772,1 -1,1h-4c-0.55228,0 -1,-0.44772 -1,-1zM12,49c-0.55228,0 -1,0.44772 -1,1v2c0,0.55228 0.44772,1 1,1c0.55228,0 1,-0.44772 1,-1v-2c0,-0.55228 -0.44772,-1 -1,-1zM17,49c-0.55228,0 -1,0.44772 -1,1v2c0,0.55228 0.44772,1 1,1c0.55228,0 1,-0.44772 1,-1v-2c0,-0.55228 -0.44772,-1 -1,-1zM22,49c-0.55228,0 -1,0.44772 -1,1v2c0,0.55228 0.44772,1 1,1c0.55228,0 1,-0.44772 1,-1v-2c0,-0.55228 -0.44772,-1 -1,-1zM27,49c-0.55228,0 -1,0.44772 -1,1v2c0,0.55228 0.44772,1 1,1c0.55228,0 1,-0.44772 1,-1v-2c0,-0.55228 -0.44772,-1 -1,-1zM37,49c-0.55228,0 -1,0.44772 -1,1v2c0,0.55228 0.44772,1 1,1c0.55228,0 1,-0.44772 1,-1v-2c0,-0.55228 -0.44772,-1 -1,-1zM32,49c-0.55228,0 -1,0.44772 -1,1v2c0,0.55228 0.44772,1 1,1c0.55228,0 1,-0.44772 1,-1v-2c0,-0.55228 -0.44772,-1 -1,-1zM42,49c-0.55228,0 -1,0.44772 -1,1v2c0,0.55228 0.44772,1 1,1c0.55228,0 1,-0.44772 1,-1v-2c0,-0.55228 -0.44772,-1 -1,-1zM47,49c-0.55228,0 -1,0.44772 -1,1v2c0,0.55228 0.44772,1 1,1c0.55228,0 1,-0.44772 1,-1v-2c0,-0.55228 -0.44772,-1 -1,-1zM52,49c-0.55228,0 -1,0.44772 -1,1v2c0,0.55228 0.44772,1 1,1c0.55228,0 1,-0.44772 1,-1v-2c0,-0.55228 -0.44772,-1 -1,-1zM15,20c0.55228,0 1,-0.44772 1,-1v-4c0,-0.55228 -0.44772,-1 -1,-1c-0.55228,0 -1,0.44772 -1,1v4c0,0.55228 0.44772,1 1,1z" fill="#0f36ae"></path></g></g></svg>