<svg xmlns="http://www.w3.org/2000/svg" xmlns:xlink="http://www.w3.org/1999/xlink" viewBox="0,0,256,256" width="100px" height="100px" fill-rule="nonzero"><g fill="#0f36ae" fill-rule="nonzero" stroke="none" stroke-width="1" stroke-linecap="butt" stroke-linejoin="miter" stroke-miterlimit="10" stroke-dasharray="" stroke-dashoffset="0" font-family="none" font-weight="none" font-size="none" text-anchor="none" style="mix-blend-mode: normal"><g transform="scale(2.56,2.56)"><path d="M31,17c-7.72039,0 -14,6.27961 -14,14v38c0,7.72039 6.27961,14 14,14h38c7.72039,0 14,-6.27961 14,-14v-38c0,-7.72039 -6.27961,-14 -14,-14zM31,19h38c6.63961,0 12,5.36039 12,12v38c0,6.63961 -5.36039,12 -12,12h-38c-6.63961,0 -12,-5.36039 -12,-12v-38c0,-6.63961 5.36039,-12 12,-12zM40,26c-7.71518,0 -14,6.28482 -14,14v20c0,7.71518 6.28482,14 14,14h20c7.71518,0 14,-6.28482 14,-14v-20c0,-7.71518 -6.28482,-14 -14,-14zM40,27h20c7.17282,0 13,5.82718 13,13v20c0,7.17282 -5.82718,13 -13,13h-20c-7.17282,0 -13,-5.82718 -13,-13v-20c0,-7.17282 5.82718,-13 13,-13zM40,30c-5.50922,0 -10,4.49078 -10,10v20c0,5.50922 4.49078,10 10,10h20c5.50922,0 10,-4.49078 10,-10v-20c0,-5.50922 -4.49078,-10 -10,-10zM40,31h20c4.96678,0 9,4.03322 9,9v20c0,4.96678 -4.03322,9 -9,9h-20c-4.96678,0 -9,-4.03322 -9,-9v-20c0,-4.96678 4.03322,-9 9,-9zM62.5,34c-1.125,0 -2.03141,0.43988 -2.62305,1.10547c-0.59164,0.66559 -0.87695,1.53342 -0.87695,2.39453c0,0.86111 0.28532,1.72894 0.87695,2.39453c0.59164,0.66559 1.49805,1.10547 2.62305,1.10547c1.125,0 2.03141,-0.43988 2.62305,-1.10547c0.59164,-0.66559 0.87695,-1.53342 0.87695,-2.39453c0,-0.86111 -0.28532,-1.72894 -0.87695,-2.39453c-0.59164,-0.66559 -1.49805,-1.10547 -2.62305,-1.10547zM62.5,35c0.875,0 1.46859,0.31012 1.87695,0.76953c0.40836,0.45941 0.62305,1.09158 0.62305,1.73047c0,0.63889 -0.21468,1.27106 -0.62305,1.73047c-0.40836,0.45941 -1.00195,0.76953 -1.87695,0.76953c-0.875,0 -1.46859,-0.31012 -1.87695,-0.76953c-0.40836,-0.45941 -0.62305,-1.09158 -0.62305,-1.73047c0,-0.63889 0.21468,-1.27106 0.62305,-1.73047c0.40836,-0.45941 1.00195,-0.76953 1.87695,-0.76953zM50,38c-6.6215,0 -12,5.37851 -12,12c0,6.62149 5.3785,12 12,12c6.6215,0 12,-5.37851 12,-12c0,-6.62149 -5.3785,-12 -12,-12zM50,39c6.08106,0 11,4.91895 11,11c0,6.08105 -4.91894,11 -11,11c-6.08106,0 -11,-4.91895 -11,-11c0,-6.08105 4.91894,-11 11,-11zM50,42c-4.41236,0 -8,3.58765 -8,8c0,4.41235 3.58764,8 8,8c4.41236,0 8,-3.58765 8,-8c0,-4.41235 -3.58764,-8 -8,-8zM50,43c3.87192,0 7,3.12808 7,7c0,3.87192 -3.12808,7 -7,7c-3.87192,0 -7,-3.12808 -7,-7c0,-3.87192 3.12808,-7 7,-7z"></path></g></g></svg>