<svg xmlns="http://www.w3.org/2000/svg" xmlns:xlink="http://www.w3.org/1999/xlink" viewBox="0,0,256,256" width="64px" height="64px" fill-rule="nonzero"><g fill="none" fill-rule="nonzero" stroke="none" stroke-width="1" stroke-linecap="butt" stroke-linejoin="miter" stroke-miterlimit="10" stroke-dasharray="" stroke-dashoffset="0" font-family="none" font-weight="none" font-size="none" text-anchor="none" style="mix-blend-mode: normal"><g transform="scale(4,4)"><path d="M7,51v-38c0,-3.31 2.69,-6 6,-6h38c3.31,0 6,2.69 6,6v38c0,3.31 -2.69,6 -6,6h-38c-3.31,0 -6,-2.69 -6,-6z" fill="#7bbeeb"></path><rect x="7" y="36" width="50" height="16" fill="#ace3ff"></rect><rect x="7" y="22" width="50" height="14" fill="#85cbf8"></rect><path d="M11,57h42c2.209,0 4,-1.791 4,-4v0c0,-1.657 -1.343,-3 -3,-3h-44c-1.657,0 -3,1.343 -3,3v0c0,2.209 1.791,4 4,4z" fill="#e3f2ff"></path><path d="M51,58h-38c-3.859,0 -7,-3.141 -7,-7v-38c0,-3.859 3.141,-7 7,-7h38c3.859,0 7,3.141 7,7v38c0,3.859 -3.141,7 -7,7zM13,8c-2.757,0 -5,2.243 -5,5v38c0,2.757 2.243,5 5,5h38c2.757,0 5,-2.243 5,-5v-38c0,-2.757 -2.243,-5 -5,-5z" fill="#0f36ae"></path><path d="M47,48c-0.552,0 -1,0.448 -1,1v2c0,0.552 0.448,1 1,1c0.552,0 1,-0.448 1,-1v-2c0,-0.552 -0.448,-1 -1,-1zM52,52c0.552,0 1,-0.448 1,-1v-2c0,-0.552 -0.448,-1 -1,-1c-0.552,0 -1,0.448 -1,1v2c0,0.552 0.448,1 1,1zM32,48c-0.552,0 -1,0.448 -1,1v2c0,0.552 0.448,1 1,1c0.552,0 1,-0.448 1,-1v-2c0,-0.552 -0.448,-1 -1,-1zM27,48c-0.552,0 -1,0.448 -1,1v2c0,0.552 0.448,1 1,1c0.552,0 1,-0.448 1,-1v-2c0,-0.552 -0.448,-1 -1,-1zM22,48c-0.552,0 -1,0.448 -1,1v2c0,0.552 0.448,1 1,1c0.552,0 1,-0.448 1,-1v-2c0,-0.552 -0.448,-1 -1,-1zM17,48c-0.552,0 -1,0.448 -1,1v2c0,0.552 0.448,1 1,1c0.552,0 1,-0.448 1,-1v-2c0,-0.552 -0.448,-1 -1,-1zM12,52c0.552,0 1,-0.448 1,-1v-2c0,-0.552 -0.448,-1 -1,-1c-0.552,0 -1,0.448 -1,1v2c0,0.552 0.448,1 1,1zM42,48c-0.552,0 -1,0.448 -1,1v2c0,0.552 0.448,1 1,1c0.552,0 1,-0.448 1,-1v-2c0,-0.552 -0.448,-1 -1,-1zM37,48c-0.552,0 -1,0.448 -1,1v2c0,0.552 0.448,1 1,1c0.552,0 1,-0.448 1,-1v-2c0,-0.552 -0.448,-1 -1,-1z" fill="#0f36ae"></path><path d="M48,40h-32c-1.105,0 -2,-0.895 -2,-2v-18c0,-1.105 0.895,-2 2,-2h32c1.105,0 2,0.895 2,2v18c0,1.105 -0.895,2 -2,2z" fill="#fff8ee"></path><path d="M48,41h-32c-1.654,0 -3,-1.346 -3,-3v-18c0,-1.654 1.346,-3 3,-3h32c1.654,0 3,1.346 3,3v18c0,1.654 -1.346,3 -3,3zM16,19c-0.552,0 -1,0.448 -1,1v18c0,0.552 0.448,1 1,1h32c0.552,0 1,-0.448 1,-1v-18c0,-0.552 -0.448,-1 -1,-1z" fill="#0f36ae"></path><path d="M32,34.927c-1.536,0 -3.072,-0.585 -4.242,-1.755l-13.465,-13.465c-0.391,-0.391 -0.391,-1.023 0,-1.414c0.391,-0.391 1.023,-0.391 1.414,0l13.465,13.465c1.559,1.559 4.098,1.559 5.656,0l13.465,-13.465c0.391,-0.391 1.023,-0.391 1.414,0c0.391,0.391 0.391,1.023 0,1.414l-13.465,13.465c-1.17,1.17 -2.706,1.755 -4.242,1.755z" fill="#0f36ae"></path><path d="M15,40c-0.256,0 -0.512,-0.098 -0.707,-0.293c-0.391,-0.391 -0.391,-1.023 0,-1.414l10,-10c0.391,-0.391 1.023,-0.391 1.414,0c0.391,0.391 0.391,1.023 0,1.414l-10,10c-0.195,0.195 -0.451,0.293 -0.707,0.293z" fill="#0f36ae"></path><path d="M49,40c-0.256,0 -0.512,-0.098 -0.707,-0.293l-10,-10c-0.391,-0.391 -0.391,-1.023 0,-1.414c0.391,-0.391 1.023,-0.391 1.414,0l10,10c0.391,0.391 0.391,1.023 0,1.414c-0.195,0.195 -0.451,0.293 -0.707,0.293z" fill="#0f36ae"></path></g></g></svg>