<svg xmlns="http://www.w3.org/2000/svg" xmlns:xlink="http://www.w3.org/1999/xlink" viewBox="0,0,256,256" width="64px" height="64px" fill-rule="nonzero"><g fill="none" fill-rule="nonzero" stroke="none" stroke-width="1" stroke-linecap="butt" stroke-linejoin="miter" stroke-miterlimit="10" stroke-dasharray="" stroke-dashoffset="0" font-family="none" font-weight="none" font-size="none" text-anchor="none" style="mix-blend-mode: normal"><g transform="scale(4,4)"><path d="M54,26.19c0,11.61 -11.86,21 -26.5,21c-2.04336,0.00081 -4.08228,-0.19003 -6.09,-0.57c-1.19,2.18 -4.27,5.61 -10.36,7c1.65047,-2.88002 2.58662,-6.11368 2.73,-9.43c-7.66,-3.7 -12.78,-10.38 -12.78,-18c0,-8.84 6.87,-16.4 16.61,-19.51c3.19959,-1.00811 6.53536,-1.51742 9.89,-1.51c10.44,0 19.5,4.83 23.78,11.74c1.76582,2.77395 2.70895,5.99172 2.72,9.28z" fill="#87ee88"></path><path d="M48.34,18.12v0c-0.99886,0.39936 -2.14115,0.11781 -2.84,-0.7c-3.84,-4.37 -10.47,-7.26 -18,-7.26c-1.94849,-0.00346 -3.89212,0.19426 -5.8,0.59c-1.09252,0.2228 -2.19884,-0.31397 -2.7,-1.31v0c-0.33709,-0.69055 -0.33646,-1.49806 0.00171,-2.18809c0.33817,-0.69002 0.97599,-1.18526 1.72829,-1.34191c2.23977,-0.46766 4.52193,-0.70224 6.81,-0.7c9,0 17,3.56 21.74,9c0.51446,0.60586 0.70876,1.42092 0.52298,2.19372c-0.18579,0.7728 -0.72935,1.41047 -1.46298,1.71628z" fill="#97e0bb"></path><path d="M63,41.24c0,-8.32 -8.51,-15.07 -19,-15.07c-10.49,0 -19,6.75 -19,15.07c0,8.32 8.51,15.07 19,15.07c1.46588,0.00153 2.92876,-0.13237 4.37,-0.4c0.85,1.56 3.06,4 7.43,5c-1.1978,-2.06091 -1.88367,-4.37913 -2,-6.76c5.53,-2.66 9.2,-7.44 9.2,-12.91z" fill="#fafafa"></path><path d="M62.24,37l-1.41,0.5c-1.26921,0.43153 -2.66899,-0.05984 -3.39,-1.19c-2.1,-3.12 -6.13,-5.41 -10.94,-6c-1.42459,-0.17628 -2.49575,-1.38455 -2.5,-2.82v-1.32c8.64,0 15.94,4.58 18.24,10.83z" fill="#fef3e9"></path><path d="M25,41.71l1.47,-0.26c1.32235,-0.2116 2.61839,0.50658 3.14,1.74c1.54,3.43 5.13,6.37 9.76,7.77c1.38287,0.40978 2.24162,1.78807 2,3.21l-0.22,1.3c-8.53,-1.47 -14.95,-7.19 -16.15,-13.76z" fill="#efe5be"></path><path d="M11,32.43l-1.46,1.39c-0.39765,0.38384 -0.40884,1.01735 -0.025,1.415c0.38384,0.39765 1.01735,0.40884 1.415,0.025l1.44,-1.39c0.30589,-0.23206 0.45189,-0.61877 0.37571,-0.99509c-0.07618,-0.37632 -0.36109,-0.67579 -0.73315,-0.77061c-0.37206,-0.09482 -0.76556,0.03175 -1.01256,0.3257zM16.48,35.7c-0.47237,-0.28332 -1.08491,-0.1313 -1.37,0.34l-1,1.71c-0.19019,0.4614 -0.01108,0.99239 0.41973,1.24432c0.4308,0.25193 0.9814,0.14767 1.29027,-0.24432l1,-1.71c0.26338,-0.4657 0.11355,-1.05621 -0.34,-1.34zM21.27,37.78c-0.25595,-0.07389 -0.53081,-0.04259 -0.7636,0.08694c-0.23279,0.12954 -0.40427,0.34661 -0.4764,0.60306l-0.55,1.92c-0.11932,0.51826 0.18787,1.03924 0.69912,1.18569c0.51125,0.14645 1.0477,-0.13287 1.22088,-0.63569l0.6,-1.94c0.06646,-0.25866 0.0267,-0.53316 -0.11042,-0.76233c-0.13713,-0.22917 -0.36022,-0.39397 -0.61958,-0.45767z" fill="#0f36ae"></path><path d="M64,41.24c0,-5.63 -3.62,-10.59 -9.08,-13.46c0.05706,-0.52803 0.08378,-1.05891 0.08,-1.59c0,-12.14 -12.34,-22 -27.5,-22c-15.16,0 -27.5,9.86 -27.5,22c0,7.61 4.75,14.52 12.74,18.58c-0.20797,2.93084 -1.07998,5.77596 -2.55,8.32c-0.21978,0.33373 -0.21978,0.76627 0,1.1c0.18883,0.25841 0.48995,0.41083 0.81,0.41c0.073,0.00988 0.147,0.00988 0.22,0c6.42,-1.43 9.49,-5.06 10.64,-6.83c1.32399,0.21798 2.65961,0.35822 4,0.42c3.23,5.4 10.11,9.14 18,9.14c1.34355,0.00244 2.68493,-0.10795 4.01,-0.33c1.84386,2.55893 4.60711,4.30432 7.71,4.87c0.06966,0.00972 0.14034,0.00972 0.21,0c0.36247,0.00212 0.6977,-0.19207 0.87619,-0.50755c0.17849,-0.31548 0.1723,-0.70284 -0.01619,-1.01245c-0.99065,-1.73361 -1.59447,-3.66104 -1.77,-5.65c5.73,-2.95 9.12,-7.95 9.12,-13.46zM21.59,45.66c-0.42421,-0.07955 -0.85159,0.12205 -1.06,0.5c-1.70895,2.80417 -4.38879,4.88256 -7.53,5.84c1.0589,-2.47137 1.66195,-5.11393 1.78,-7.8c0.02058,-0.40028 -0.19982,-0.77417 -0.56,-0.95c-7.66,-3.66 -12.22,-10.04 -12.22,-17.06c0,-11 11.44,-20 25.5,-20c14.06,0 25.5,9 25.5,20c0,0.23 0,0.47 0,0.7c-2.86042,-1.15038 -5.91696,-1.73451 -9,-1.72c-11,0 -20,7.21 -20,16.07c0.00163,1.66502 0.32066,3.31446 0.94,4.86c-1.12,-0.1 -2.24,-0.24 -3.35,-0.44zM53.41,53.23c-0.36408,0.17287 -0.5888,0.5474 -0.57,0.95c0.06689,1.73506 0.40429,3.44904 1,5.08c-1.9406,-0.71567 -3.58029,-2.06974 -4.65,-3.84c-0.17677,-0.31449 -0.50924,-0.50938 -0.87,-0.51h-0.19c-1.3782,0.25953 -2.77758,0.39009 -4.18,0.39c-6.7,0 -12.55,-2.87 -15.64,-7.12c-0.46635,-0.62454 -0.86839,-1.29461 -1.2,-2c-0.76645,-1.55514 -1.16343,-3.26625 -1.16,-5c0,-7.76 8.07,-14.07 18,-14.07c3.01104,-0.0124 5.99258,0.59344 8.76,1.78c0.62908,0.2778 1.24325,0.58823 1.84,0.93c4.49,2.56 7.4,6.7 7.4,11.36c0.05,4.98 -3.16,9.46 -8.54,12.05z" fill="#0f36ae"></path><path d="M38,36c-1.10457,0 -2,0.89543 -2,2c0,1.10457 0.89543,2 2,2c1.10457,0 2,-0.89543 2,-2c0,-1.10457 -0.89543,-2 -2,-2zM50,36c-1.10457,0 -2,0.89543 -2,2c0,1.10457 0.89543,2 2,2c1.10457,0 2,-0.89543 2,-2c0,-1.10457 -0.89543,-2 -2,-2zM18,19c-1.10457,0 -2,0.89543 -2,2c0,1.10457 0.89543,2 2,2c1.10457,0 2,-0.89543 2,-2c0,-1.10457 -0.89543,-2 -2,-2zM36,19c-1.10457,0 -2,0.89543 -2,2c0,1.10457 0.89543,2 2,2c1.10457,0 2,-0.89543 2,-2c0,-1.10457 -0.89543,-2 -2,-2zM25.4,10.94c0.69,-0.06 1.4,-0.1 2.1,-0.1c3.53292,-0.0627 7.03722,0.64362 10.27,2.07c0.50534,0.22644 1.09856,0.00034 1.325,-0.505c0.22644,-0.50534 0.00034,-1.09856 -0.505,-1.325c-3.49932,-1.52632 -7.28254,-2.29318 -11.1,-2.25c-0.76,0 -1.52,0 -2.26,0.11c-0.55228,0.04971 -0.95971,0.53772 -0.91,1.09c0.04971,0.55228 0.53772,0.95971 1.09,0.91zM42.93,16.2c0.41421,0.36727 1.04773,0.32921 1.415,-0.085c0.36727,-0.41421 0.32921,-1.04773 -0.085,-1.415c-0.54282,-0.47924 -1.11025,-0.92985 -1.7,-1.35c-0.45563,-0.32033 -1.08467,-0.21063 -1.405,0.245c-0.32033,0.45563 -0.21063,1.08467 0.245,1.405c0.5306,0.37302 1.04129,0.77357 1.53,1.2zM38.33,49.33c-2.61458,-0.81118 -4.85724,-2.5224 -6.33,-4.83c-0.2875,-0.45225 -0.8804,-0.59748 -1.34436,-0.32929c-0.46396,0.26819 -0.63404,0.85444 -0.38564,1.32929c1.71836,2.73519 4.35668,4.76712 7.44,5.73c0.52191,0.18225 1.09275,-0.09309 1.275,-0.615c0.18225,-0.52191 -0.09309,-1.09275 -0.615,-1.275z" fill="#0f36ae"></path></g></g></svg>