<svg xmlns="http://www.w3.org/2000/svg" xmlns:xlink="http://www.w3.org/1999/xlink" viewBox="0,0,256,256" width="32px" height="32px" fill-rule="nonzero"><g fill="#0f36ae" fill-rule="nonzero" stroke="none" stroke-width="1" stroke-linecap="butt" stroke-linejoin="miter" stroke-miterlimit="10" stroke-dasharray="" stroke-dashoffset="0" font-family="none" font-weight="none" font-size="none" text-anchor="none" style="mix-blend-mode: normal"><g transform="scale(8,8)"><path d="M10,4v2h12v-2zM22,6v2h2v-2zM24,8v2h2v-2zM26,10v12h2v-12zM26,22h-2v2h2zM24,24h-2v2h2zM22,26h-12v2h12zM10,26v-2h-2v2zM8,24v-2h-2v2zM6,22v-12h-2v12zM6,10h2v-2h-2zM8,8h2v-2h-2zM11,11v2h2v-2zM13,13v2h2v-2zM15,15v2h2v-2zM17,15h2v-2h-2zM19,13h2v-2h-2zM17,17v2h2v-2zM19,19v2h2v-2zM15,17h-2v2h2zM13,19h-2v2h2z"></path></g></g></svg>